<mxfile host="app.diagrams.net" modified="2024-06-25T13:25:00.105Z" agent="Mozilla/5.0 (X11; Ubuntu; Linux x86_64; rv:126.0) Gecko/20100101 Firefox/126.0" version="24.6.2" etag="3gRnCR_2z7BoRcSVaRCb" type="github">
  <diagram name="Page-1" id="ZLYTAR44mfVbnXjRccaU">
    <mxGraphModel>
      <root>
        <mxCell id="0" />
        <mxCell id="1" parent="0" />
      </root>
    </mxGraphModel>
  </diagram>
</mxfile>
